<svg xmlns="http://www.w3.org/2000/svg" viewBox="0 0 556 556"><defs><style>.cls-1{fill:#7c7c7c;}.cls-2{fill:none;stroke:#7c7c7c;stroke-miterlimit:10;stroke-width:10px;}</style></defs><g id="Layer_2" data-name="Layer 2"><g id="Layer_1-2" data-name="Layer 1"><path class="cls-1" d="M437.46,130H118.26a34.1,34.1,0,0,0-34,34V391a34.09,34.09,0,0,0,34,34h319.2a34.1,34.1,0,0,0,34-34V164A34.1,34.1,0,0,0,437.46,130Zm-4.7,22.69L278.58,306.87,123.07,152.69ZM106.91,386.26V168.63L216.2,277Zm16,16.05L232.31,293l38.32,38a11.34,11.34,0,0,0,16,0L324,293.55,432.76,402.31Zm325.85-16.05L340.05,277.5,448.81,168.74Z"/><circle class="cls-2" cx="278" cy="278" r="273"/></g></g></svg>