<svg xmlns="http://www.w3.org/2000/svg" viewBox="0 0 686 686"><defs><style>.cls-1{fill:#fff;}.cls-1,.cls-2{stroke:#fff;stroke-miterlimit:10;stroke-width:10px;}.cls-2{fill:none;}</style></defs><g id="Layer_2" data-name="Layer 2"><g id="Layer_1-2" data-name="Layer 1"><path class="cls-1" d="M275.58,516a53,53,0,1,1-53-53A53,53,0,0,1,275.58,516Z"/><path class="cls-1" d="M516,516a53,53,0,1,1-53-53A53,53,0,0,1,516,516Z"/><path class="cls-1" d="M342.75,116.5c-124.47,0-226.25,101.78-226.25,226.25a227,227,0,0,0,40,128.94,79.53,79.53,0,0,1,42.76-31.38,174.16,174.16,0,0,1-29.76-97.56c0-95,78.2-173.22,173.22-173.22S516,247.73,516,342.75a174.16,174.16,0,0,1-29.76,97.56A79.53,79.53,0,0,1,529,471.69a227,227,0,0,0,40-128.94C569,218.28,467.22,116.5,342.75,116.5Z"/><circle class="cls-2" cx="343" cy="343" r="338"/></g></g></svg>