<svg xmlns="http://www.w3.org/2000/svg" viewBox="0 0 444 444"><defs><style>.cls-1,.cls-3{fill:#fff;}.cls-2{fill:none;stroke-width:10px;}.cls-2,.cls-3{stroke:#fff;stroke-miterlimit:10;}.cls-3{stroke-width:40px;}</style></defs><g id="Layer_2" data-name="Layer 2"><g id="Layer_1-2" data-name="Layer 1"><path class="cls-1" d="M346.11,236.8a137.25,137.25,0,0,1-90.86,76,14.43,14.43,0,0,1-17.89-14v-91a7.3,7.3,0,0,1,7.31-7.3H274.3a15.13,15.13,0,0,0,0-30.25H244.67a7.3,7.3,0,0,1-7.31-7.3V133.34a11.1,11.1,0,0,1,5.11-9.31,38.34,38.34,0,1,0-41.42.09,10.94,10.94,0,0,1,5,9.22V163a7.31,7.31,0,0,1-7.31,7.3H169.35a15.14,15.14,0,0,0-15.12,14.85v.28a15.13,15.13,0,0,0,15.12,15.12h29.37a7.31,7.31,0,0,1,7.31,7.3v91a14.44,14.44,0,0,1-17.9,14,137.21,137.21,0,0,1-90.86-76c-8.64-19-37.65-5.88-29,13.13,22.11,48.73,67.74,86.44,124,96.29A16.58,16.58,0,0,1,206,362.52v11.4A15.92,15.92,0,0,0,221.16,390a15.67,15.67,0,0,0,16.2-15.66V362.52a16.57,16.57,0,0,1,13.74-16.3c56-9.8,101.82-47.31,124-96.29C383.83,230.77,354.69,217.94,346.11,236.8ZM231.59,94.17a9.9,9.9,0,0,1-19.8,0v-4.7a9.9,9.9,0,1,1,19.8,0Z"/><circle class="cls-2" cx="222" cy="222" r="217"/><polygon class="cls-3" points="350.31 370 90 82.36 92.69 80 353 367.64 350.31 370"/></g></g></svg>