<svg xmlns="http://www.w3.org/2000/svg" viewBox="0 0 686 686"><defs><style>.cls-1{fill:none;stroke:#fff;stroke-miterlimit:10;stroke-width:10px;}.cls-2{fill:#fff;}</style></defs><g id="Layer_2" data-name="Layer 2"><g id="Layer_1-2" data-name="Layer 1"><circle class="cls-1" cx="343" cy="343" r="338"/><path class="cls-2" d="M186.65,589.69l35.55-27.56.69,0a10.55,10.55,0,0,0,7.46-3.08l16-16a12.12,12.12,0,0,0,13.2-2.64l12.68-12.68A26.64,26.64,0,0,0,308,526l23.92-23.93a7.5,7.5,0,1,0-10.61-10.6l-23.92,23.92a11.62,11.62,0,0,1-16.37,0L242.89,477.3a11.59,11.59,0,0,1,0-16.37l78.4-78.4a11.61,11.61,0,0,1,16.37,0l38.09,38.09a11.58,11.58,0,0,1,0,16.37L346,466.72a7.5,7.5,0,0,0,10.61,10.6l29.73-29.73a26.61,26.61,0,0,0,1.33-36.14l4.4-4.39,7.07,7.07a21,21,0,0,0,29.65-29.65l-7.07-7.08L432,367.19a12,12,0,0,0,2.36-13.58l69.23-69.23A31.3,31.3,0,0,0,527.28,231h0a31.24,31.24,0,0,0-24.94-9l-57.15-57.16a7.5,7.5,0,0,0-10.61,10.61l52.3,52.29a32,32,0,0,0-8.19,8.69l-94.8-94.79-29.41-29.41a16.48,16.48,0,0,0-23.3,0l-86.27,86.27a16.49,16.49,0,0,0,0,23.3L370.27,347.14l-8.44,8.44L236.47,230.22a28.44,28.44,0,0,1,0-40.18l86.27-86.27a28.44,28.44,0,0,1,40.18,0l46.91,46.91a7.5,7.5,0,0,0,10.61-10.6L373.53,93.16a43.4,43.4,0,0,0-61.4,0l-86.27,86.28a43.45,43.45,0,0,0,0,61.39L351.22,366.19l-4.4,4.4a26.61,26.61,0,0,0-36.14,1.33l-78.4,78.4A26.61,26.61,0,0,0,230.56,486l-12.69,12.69a12.12,12.12,0,0,0-2.62,13.19L199.2,527.94a10.51,10.51,0,0,0-3,8.14l-27.56,35.55a12.87,12.87,0,0,0,18.06,18.06ZM418.21,403.53a6,6,0,0,1-8.44,0l-7.08-7.08,8.44-8.44,7.08,7.08a6,6,0,0,1,0,8.44Zm75.4-161.9,0,0,0,0a16.29,16.29,0,1,1,0,23.06,16.31,16.31,0,0,1,0-23.06Zm-14.4,29a31.81,31.81,0,0,0,8.44,8.44l-63.43,63.42-8.44-8.43ZM279.62,235.29l-24.11-24.12a1.49,1.49,0,0,1,0-2.08l86.27-86.28a1.5,1.5,0,0,1,2.09,0L368,146.92l-6,6-3.37-3.37a18.29,18.29,0,0,0-25.85,0L282.27,200a18.31,18.31,0,0,0,0,25.85l3.38,3.37Zm85.71-53.13-50.47,50.47a3.31,3.31,0,0,1-4.63,0l-17.35-17.35a3.33,3.33,0,0,1,0-4.63l50.47-50.47a3.31,3.31,0,0,1,4.63,0l17.35,17.35A3.33,3.33,0,0,1,365.33,182.16ZM330.4,286.07l-40.17-40.18,6-6,3.38,3.37a18.3,18.3,0,0,0,25.84,0l50.47-50.47a18.3,18.3,0,0,0,0-25.84l-3.38-3.37,6-6,40.18,40.18-6,6-3.37-3.37a18.29,18.29,0,0,0-25.84,0l-50.47,50.47a18.28,18.28,0,0,0,0,25.84l3.37,3.37ZM416.11,233l-50.46,50.47a3.29,3.29,0,0,1-2.32.94,3.25,3.25,0,0,1-2.31-.94l-8.67-8.67h0l-8.67-8.66a3.31,3.31,0,0,1,0-4.63L394.14,211a3.3,3.3,0,0,1,4.62,0l17.36,17.35a3.32,3.32,0,0,1,0,4.63ZM341,296.68l6-6,3.37,3.37a18.3,18.3,0,0,0,25.84,0l50.47-50.46a18.29,18.29,0,0,0,0-25.85l-3.37-3.37,6-6,44.5,44.51c0,.63,0,1.26,0,1.89L404.67,324a12,12,0,0,0-13.58,2.37l-10.22,10.22Zm58.56,42.37,19.65,19.66-42.08,42.08-19.65-19.65ZM241.08,496.7l20.5,20.5L251,527.76l-20.51-20.51ZM225.2,523.15l9.93,9.93-12.24,12.24L213,535.39Zm-20,25.72.71.71,3.48,3.48-18.67,14.48Z"/></g></g></svg>